<mxfile host="app.diagrams.net" modified="2023-07-25T04:23:02.091Z" agent="Mozilla/5.0 (Macintosh; Intel Mac OS X 10_15_7) AppleWebKit/537.36 (KHTML, like Gecko) Chrome/114.0.0.0 Safari/537.36" version="21.3.7" etag="3FR5eeqyFRMTmWBspvxT" type="github">
  <diagram name="Страница 1" id="KycDKhHWeujPv4wqmpNf">
    <mxGraphModel>
      <root>
        <mxCell id="0" />
        <mxCell id="1" parent="0" />
      </root>
    </mxGraphModel>
  </diagram>
</mxfile>
